#tb 0: 1/25
0,          0,          0,        1,  1382400, 0xaea37937
0,          1,          1,        1,  1382400, 0xea5c7b5d
0,          2,          2,        1,  1382400, 0x4e41e421
0,          3,          3,        1,  1382400, 0x9214d0ee
0,          4,          4,        1,  1382400, 0xc9aef661
0,          5,          5,        1,  1382400, 0xddb8a3d2
0,          6,          6,        1,  1382400, 0xf00f3c55
0,          7,          7,        1,  1382400, 0x586d98bd
0,          8,          8,        1,  1382400, 0x60650aa6
0,          9,          9,        1,  1382400, 0x13108a54
0,         10,         10,        1,  1382400, 0x90d25797
0,         11,         11,        1,  1382400, 0x472fbac3
0,         12,         12,        1,  1382400, 0xb9f2ac5a
0,         13,         13,        1,  1382400, 0xb6fc0c35
0,         14,         14,        1,  1382400, 0xfe3fd694
0,         15,         15,        1,  1382400, 0xb1a0f737
0,         16,         16,        1,  1382400, 0xf7e62b7e
